Coordinates
version=1
nRows=18
nColumns=34
inDegrees=no

Units are S.I. units (second, meters, Newtons, ...)
If the header above contains a line with 'inDegrees', this indicates whether rotational values are in degrees (yes) or radians (no).

endheader
time	pelvis_tilt	pelvis_list	pelvis_rotation	pelvis_tx	pelvis_ty	pelvis_tz	hip_flexion_r	hip_adduction_r	hip_rotation_r	knee_angle_r	ankle_angle_r	subtalar_angle_r	mtp_angle_r	hip_flexion_l	hip_adduction_l	hip_rotation_l	knee_angle_l	ankle_angle_l	subtalar_angle_l	mtp_angle_l	lumbar_extension	lumbar_bending	lumbar_rotation	arm_flex_r	arm_add_r	arm_rot_r	elbow_flex_r	pro_sup_r	arm_flex_l	arm_add_l	arm_rot_l	elbow_flex_l	pro_sup_l
9.9	-0.363279	-0.0371984	-0.0902128	-0.281113	0.835477	-0.525734	0.918238	0.0516494	-0.111894	0.806239	0.387925	-0.0396767	-0.0215932	0.92929	-0.358079	-0.0912334	0.842735	0.309903	-0.00429265	-0.0215933	-0.312491	0.14887	0.0895828	1.34901	-0.194945	0.376521	1.37668	1.7788	1.14948	-0.228502	0.0895465	1.43693	1.70753
9.91	-0.353004	-0.0372716	-0.0890859	-0.278103	0.841475	-0.526258	0.888015	0.0495543	-0.114251	0.778512	0.381421	-0.0316191	-0.0215932	0.898247	-0.354345	-0.100512	0.815853	0.302722	-0.000399914	-0.0215933	-0.306638	0.150877	0.0862663	1.32288	-0.198106	0.369921	1.37805	1.78016	1.12442	-0.224429	0.0816003	1.43771	1.70654
9.92	-0.342697	-0.0369235	-0.088029	-0.275067	0.847297	-0.526746	0.858001	0.0473342	-0.116275	0.751092	0.375061	-0.0235466	-0.0215932	0.867134	-0.350332	-0.110237	0.789006	0.295629	0.00398862	-0.0215933	-0.300601	0.152208	0.0829507	1.29684	-0.201408	0.363048	1.37937	1.78135	1.09965	-0.220381	0.0740092	1.43826	1.70583
9.93	-0.332217	-0.0362826	-0.0872035	-0.272009	0.852946	-0.527176	0.82804	0.0452798	-0.117838	0.723939	0.368753	-0.0156784	-0.0215932	0.835846	-0.34632	-0.120449	0.762286	0.28871	0.00901346	-0.0215933	-0.294614	0.152936	0.0798058	1.271	-0.204687	0.355866	1.38054	1.78242	1.07534	-0.216425	0.0667579	1.43854	1.70536
9.94	-0.321469	-0.0355276	-0.0867054	-0.268933	0.858424	-0.527535	0.797998	0.0436526	-0.118879	0.696988	0.362405	-0.00820565	-0.0215932	0.804359	-0.342551	-0.13108	0.735796	0.282037	0.014754	-0.0215932	-0.288853	0.15323	0.0769388	1.24549	-0.207822	0.348439	1.38144	1.78342	1.05158	-0.2126	0.0597408	1.43854	1.70519
9.95	-0.310415	-0.0348603	-0.08656	-0.265844	0.863726	-0.527819	0.767785	0.0426603	-0.119392	0.670159	0.355937	-0.00128721	-0.0215932	0.772729	-0.339201	-0.14197	0.709636	0.275664	0.0212099	-0.0215932	-0.283416	0.153337	0.0743717	1.22048	-0.210742	0.340963	1.38195	1.78439	1.02842	-0.208945	0.0527882	1.43828	1.70549
9.96	-0.299066	-0.0344809	-0.0867391	-0.262745	0.868848	-0.528037	0.737349	0.0424589	-0.119398	0.643354	0.34928	0.00494115	-0.0215932	0.741078	-0.336389	-0.152907	0.683902	0.269627	0.0283163	-0.0215932	-0.278332	0.153545	0.072049	1.19615	-0.213409	0.333735	1.38196	1.78537	1.00582	-0.205531	0.0457143	1.43789	1.70641
9.97	-0.287474	-0.0345659	-0.0871848	-0.259641	0.87378	-0.528201	0.706678	0.0431558	-0.118923	0.616473	0.34238	0.0103668	-0.0215932	0.709557	-0.334187	-0.163674	0.658677	0.26395	0.035973	-0.0215932	-0.273584	0.154148	0.0698624	1.17272	-0.215792	0.327098	1.38137	1.78645	0.983688	-0.202466	0.0383659	1.43754	1.7081
9.98	-0.27572	-0.0352461	-0.0878237	-0.256537	0.878514	-0.528328	0.675795	0.044803	-0.117994	0.589423	0.335199	0.0149149	-0.0215932	0.678336	-0.332625	-0.174084	0.63403	0.258649	0.0440513	-0.0215932	-0.269115	0.15541	0.0676785	1.15037	-0.21787	0.321372	1.38009	1.78778	0.961888	-0.199884	0.0306664	1.43743	1.71055
9.99	-0.263897	-0.0365922	-0.0885738	-0.253439	0.88304	-0.528436	0.644754	0.0473854	-0.116638	0.562139	0.327738	0.0185698	-0.0215932	0.647573	-0.331678	-0.183977	0.610011	0.253722	0.0523818	-0.0215932	-0.264861	0.157514	0.0653693	1.12927	-0.219638	0.316778	1.37812	1.78949	0.940303	-0.197919	0.0226467	1.43777	1.71361
10	-0.252087	-0.038607	-0.089348	-0.250356	0.887349	-0.528542	0.613628	0.0508151	-0.114897	0.534606	0.320038	0.0213889	-0.0215932	0.617396	-0.331261	-0.193211	0.586649	0.249151	0.060743	-0.0215932	-0.260772	0.160537	0.0628487	1.10949	-0.221145	0.313383	1.37557	1.79171	0.918889	-0.196639	0.0144481	1.43868	1.71695
10.01	-0.24034	-0.0412291	-0.0900593	-0.247296	0.891435	-0.528656	0.582491	0.0549383	-0.11282	0.50686	0.312187	0.0234978	-0.0215932	0.587886	-0.331234	-0.201662	0.563958	0.2449	0.0688753	-0.0215932	-0.256834	0.164416	0.060111	1.091	-0.222529	0.311055	1.37267	1.79443	0.897724	-0.195984	0.00629135	1.44017	1.72019
10.02	-0.228662	-0.0443477	-0.0906306	-0.244271	0.895297	-0.528783	0.551402	0.0595606	-0.110456	0.478983	0.304301	0.025065	-0.0215932	0.55906	-0.331429	-0.209242	0.541938	0.240937	0.0765266	-0.0215932	-0.253084	0.168954	0.0572594	1.07365	-0.224036	0.309467	1.36975	1.79754	0.877024	-0.195727	-0.00156026	1.44212	1.72307
10.03	-0.217018	-0.0478231	-0.091001	-0.241293	0.898934	-0.528918	0.520393	0.0644752	-0.107845	0.451085	0.296502	0.0262764	-0.0215932	0.530877	-0.331677	-0.215911	0.520582	0.237236	0.0834993	-0.0215932	-0.249601	0.173855	0.0544913	1.05718	-0.225989	0.30814	1.36726	1.80078	0.857114	-0.195513	-0.00882623	1.44426	1.72544
10.04	-0.205343	-0.0515185	-0.0911263	-0.238372	0.90235	-0.529055	0.489459	0.0694983	-0.105008	0.423271	0.288886	0.0272859	-0.0215931	0.503245	-0.331846	-0.221695	0.499875	0.233794	0.0897088	-0.0215932	-0.246499	0.178797	0.0520287	1.0413	-0.22869	0.306564	1.36562	1.80386	0.838335	-0.194978	-0.0152558	1.44632	1.72727
10.05	-0.193548	-0.0553192	-0.0909763	-0.235517	0.905553	-0.529185	0.458551	0.0744931	-0.101928	0.395618	0.281497	0.028167	-0.0215931	0.476036	-0.331858	-0.226691	0.479795	0.230637	0.095219	-0.0215932	-0.243904	0.18352	0.0500238	1.02576	-0.232304	0.304329	1.3651	1.80653	0.820941	-0.193891	-0.0206921	1.44809	1.72864
10.06	-0.181536	-0.0591432	-0.0905338	-0.23273	0.908552	-0.529302	0.427576	0.0793797	-0.0985359	0.368158	0.27432	0.0288852	-0.0215931	0.449097	-0.331702	-0.231075	0.460319	0.227824	0.10025	-0.0215932	-0.241947	0.187874	0.0484976	1.01044	-0.236782	0.301228	1.3658	1.80859	0.805036	-0.19223	-0.0251213	1.44951	1.72965
10.07	-0.169194	-0.0629504	-0.089801	-0.23001	0.911357	-0.529404	0.396395	0.0841444	-0.0946954	0.340866	0.267268	0.0292811	-0.0215931	0.422252	-0.331436	-0.235102	0.441436	0.225443	0.10517	-0.0215932	-0.240758	0.191825	0.0473487	0.995357	-0.241884	0.297277	1.36757	1.80998	0.790569	-0.190171	-0.0286615	1.45063	1.73036
